<svg width="14" height="13" viewBox="0 0 14 13" fill="none" xmlns="http://www.w3.org/2000/svg">
<path d="M7.26533 0.502901C7.15277 0.289557 6.84723 0.289558 6.73467 0.502902L4.9293 3.92471C4.88589 4.00699 4.80677 4.06447 4.71511 4.08033L0.902884 4.73994C0.665198 4.78106 0.57078 5.07165 0.738899 5.24463L3.43534 8.01904C3.50018 8.08575 3.5304 8.17876 3.51716 8.27083L2.96644 12.1003C2.93211 12.3391 3.1793 12.5187 3.39576 12.4122L6.86763 10.7051C6.9511 10.664 7.0489 10.664 7.13237 10.7051L10.6042 12.4122C10.8207 12.5187 11.0679 12.3391 11.0336 12.1003L10.4828 8.27083C10.4696 8.17876 10.4998 8.08575 10.5647 8.01904L13.2611 5.24463C13.4292 5.07165 13.3348 4.78106 13.0971 4.73994L9.28489 4.08033C9.19323 4.06447 9.11411 4.00699 9.0707 3.92471L7.26533 0.502901Z" fill="#828282"/>
</svg>
