<svg width="264" height="263" viewBox="0 0 264 263" fill="none" xmlns="http://www.w3.org/2000/svg">
<path d="M144.031 250.418C210.288 243.807 258.613 185.07 251.969 119.224C245.324 53.3784 186.225 5.35898 119.969 11.9696C53.7118 18.5803 5.38666 77.3176 12.0314 143.163C18.6762 209.009 77.7746 257.028 144.031 250.418Z" fill="url(#paint0_linear_66_3138)"/>
<path d="M132.022 252.508C107.867 252.508 84.2549 245.39 64.1709 232.053C44.0868 218.717 28.4332 199.762 19.1895 177.584C9.94586 155.407 7.52729 131.003 12.2397 107.46C16.9521 83.9165 28.5837 62.2904 45.6638 45.3165C62.7439 28.3427 84.5052 16.7833 108.196 12.1002C131.887 7.41712 156.443 9.82062 178.759 19.0068C201.075 28.193 220.149 43.7493 233.569 63.7085C246.989 83.6677 254.151 107.133 254.151 131.138C254.123 163.319 241.247 194.173 218.35 216.929C195.452 239.684 164.404 252.48 132.022 252.508ZM132.022 12.8639C108.473 12.8639 85.4526 19.8037 65.8721 32.8056C46.2916 45.8075 31.0304 64.2876 22.0185 85.9091C13.0066 107.53 10.6487 131.322 15.2429 154.275C19.8372 177.228 31.1772 198.312 47.829 214.861C64.4809 231.409 85.6966 242.678 108.793 247.244C131.89 251.81 155.831 249.467 177.587 240.511C199.344 231.555 217.94 216.388 231.023 196.93C244.106 177.471 251.089 154.594 251.089 131.191C251.052 99.82 238.495 69.7447 216.174 47.5622C193.853 25.3797 163.589 12.9011 132.022 12.8639Z" fill="#231F20"/>
<path opacity="0.5" d="M152.543 180.976C180.214 169.71 193.455 138.284 182.117 110.786C170.78 83.2877 139.158 70.1293 111.488 81.396C83.8175 92.6627 70.5768 124.088 81.914 151.586C93.2512 179.085 124.873 192.243 152.543 180.976Z" fill="black"/>
<path opacity="0.6" d="M132.022 218.084C114.725 218.084 97.8153 212.986 83.433 203.435C69.0507 193.885 57.8413 180.31 51.2226 164.428C44.6038 148.546 42.873 131.07 46.2489 114.21C49.6248 97.3507 57.9559 81.8646 70.1885 69.7105C82.421 57.5564 98.0057 49.2803 114.972 45.9288C131.937 42.5772 149.522 44.3009 165.502 50.8817C181.482 57.4625 195.14 68.6049 204.747 82.8997C214.355 97.1946 219.481 114 219.477 131.19C219.449 154.23 210.226 176.318 193.83 192.609C177.435 208.899 155.207 218.061 132.022 218.084ZM132.022 45.545C114.977 45.5415 98.3127 50.5615 84.138 59.9702C69.9633 69.3789 58.9146 82.7536 52.3891 98.4028C45.8635 114.052 44.1544 131.273 47.4777 147.888C50.801 164.502 59.0075 179.764 71.0594 191.744C83.1113 203.723 98.4672 211.882 115.185 215.188C131.903 218.494 149.232 216.799 164.98 210.317C180.729 203.836 194.19 192.858 203.66 178.774C213.131 164.689 218.185 148.13 218.185 131.19C218.162 108.486 209.077 86.7177 192.924 70.6617C176.771 54.6057 154.869 45.5729 132.022 45.545Z" fill="#231F20"/>
<path opacity="0.6" d="M132.022 199.404C118.447 199.404 105.176 195.403 93.888 187.908C82.6002 180.413 73.8024 169.759 68.6072 157.295C63.412 144.83 62.0526 131.115 64.7011 117.883C67.3496 104.651 73.887 92.4963 83.4865 82.9565C93.086 73.4167 105.316 66.92 118.631 64.2879C131.946 61.6559 145.748 63.0067 158.29 68.1696C170.832 73.3326 181.552 82.0757 189.095 93.2933C196.637 104.511 200.663 117.699 200.663 131.191C200.639 149.275 193.4 166.612 180.532 179.399C167.665 192.187 150.22 199.381 132.022 199.404ZM132.022 64.2085C118.691 64.205 105.658 68.1305 94.5715 75.4885C83.4851 82.8465 74.8434 93.3064 69.7392 105.545C64.6351 117.785 63.2978 131.253 65.8965 144.247C68.4952 157.242 74.9131 169.179 84.3386 178.548C93.7641 187.917 105.774 194.299 118.849 196.884C131.924 199.47 145.477 198.145 157.794 193.076C170.111 188.007 180.639 179.421 188.046 168.406C195.452 157.39 199.406 144.439 199.406 131.191C199.387 113.435 192.282 96.411 179.65 83.8539C167.018 71.2969 149.89 64.2318 132.022 64.2085Z" fill="#231F20"/>
<path d="M149.368 131.19C149.368 134.604 148.35 137.941 146.441 140.779C144.532 143.617 141.819 145.829 138.645 147.134C135.472 148.44 131.979 148.78 128.611 148.113C125.242 147.446 122.148 145.801 119.721 143.386C117.293 140.971 115.641 137.894 114.973 134.546C114.305 131.198 114.651 127.727 115.968 124.575C117.285 121.422 119.513 118.728 122.371 116.834C125.229 114.94 128.587 113.931 132.022 113.935C134.302 113.935 136.559 114.381 138.664 115.249C140.77 116.116 142.683 117.387 144.294 118.99C145.905 120.592 147.182 122.495 148.053 124.588C148.924 126.682 149.371 128.925 149.368 131.19Z" fill="#D9DADC"/>
<path opacity="0.6" d="M132.022 235.938C111.171 235.942 90.7863 229.8 73.4472 218.289C56.1082 206.779 42.5934 190.417 34.6122 171.273C26.631 152.129 24.5418 131.063 28.6089 110.739C32.676 90.4146 42.7167 71.7456 57.4611 57.0929C72.2055 42.4402 90.9913 32.4619 111.443 28.4201C131.894 24.3782 153.092 26.4544 172.356 34.386C191.619 42.3176 208.084 55.7483 219.666 72.9796C231.248 90.2108 237.429 110.469 237.425 131.191C237.392 158.961 226.277 185.585 206.517 205.222C186.757 224.859 159.967 235.906 132.022 235.938ZM132.022 27.9734C111.48 27.9734 91.3994 34.0269 74.3192 45.3686C57.2391 56.7102 43.9267 72.8306 36.0656 91.6911C28.2044 110.552 26.1476 131.305 30.1551 151.327C34.1627 171.349 44.0547 189.741 58.5802 204.176C73.1057 218.611 91.6123 228.442 111.76 232.424C131.907 236.407 152.791 234.363 171.769 226.551C190.748 218.739 206.969 205.509 218.381 188.535C229.794 171.561 235.885 151.605 235.885 131.191C235.857 103.824 224.906 77.5868 205.434 58.2358C185.962 38.8849 159.56 28.0013 132.022 27.9734Z" fill="#231F20"/>
<defs>
<linearGradient id="paint0_linear_66_3138" x1="192.317" y1="234.95" x2="72.8317" y2="26.7397" gradientUnits="userSpaceOnUse">
<stop offset="0.1" stop-color="#262626"/>
<stop offset="0.35" stop-color="#434343"/>
<stop offset="0.5" stop-color="#505050"/>
<stop offset="0.64" stop-color="#3D3B3C"/>
<stop offset="0.79" stop-color="#252223"/>
<stop offset="1"/>
</linearGradient>
</defs>
</svg>
