<?xml version="1.0" encoding="UTF-8" standalone="no"?> <svg width="64" height="64" viewBox="0 0 64 64" fill="white" xmlns="http://www.w3.org/2000/svg">
<path d="M29.3 36.8C28.8 37.3 28.3 37.8 27.9 38.2C27.5 37.9 27.2 37.5 26.8 37.2C26.5 36.9 26.3 36.7 26 36.4C26.5 36 27 35.5 27.5 35C27.7 35.2 27.9 35.5 28.2 35.7C28.6 36.1 28.9 36.5 29.3 36.8Z" fill="white"/>
<path d="M61 4.4L61.7 3.7C62.1 3.3 62.1 2.7 61.7 2.3C61.3 1.9 60.7 1.9 60.3 2.3L59.6 3L58.9 2.3C58.5 1.9 57.9 1.9 57.5 2.3C57.1 2.7 57.1 3.3 57.5 3.7L58.2 4.4L57.5 5.1C57.1 5.5 57.1 6.1 57.5 6.5C57.7 6.7 58 6.8 58.2 6.8C58.4 6.8 58.7 6.7 58.9 6.5L59.6 5.8L60.3 6.5C60.5 6.7 60.8 6.8 61 6.8C61.2 6.8 61.5 6.7 61.7 6.5C62.1 6.1 62.1 5.5 61.7 5.1L61 4.4Z" fill="white" />
<path d="M33.5 10.5C33.7 10.7 34 10.8 34.2 10.8C34.4 10.8 34.7 10.7 34.9 10.5L35.6 9.8L36.3 10.5C36.5 10.7 36.8 10.8 37 10.8C37.2 10.8 37.5 10.7 37.7 10.5C38.1 10.1 38.1 9.5 37.7 9.1L37 8.4L37.7 7.7C38.1 7.3 38.1 6.7 37.7 6.3C37.3 5.9 36.7 5.9 36.3 6.3L35.6 7L34.9 6.3C34.5 5.9 33.9 5.9 33.5 6.3C33.1 6.7 33.1 7.3 33.5 7.7L34.2 8.4L33.5 9.1C33.1 9.5 33.1 10.1 33.5 10.5Z" fill="white" />
<path d="M60.7 30.3C60.3 29.9 59.7 29.9 59.3 30.3L58.6 31L57.9 30.3C57.5 29.9 56.9 29.9 56.5 30.3C56.1 30.7 56.1 31.3 56.5 31.7L57.2 32.4L56.5 33.1C56.1 33.5 56.1 34.1 56.5 34.5C56.7 34.7 57 34.8 57.2 34.8C57.4 34.8 57.7 34.7 57.9 34.5L58.6 33.8L59.3 34.5C59.5 34.7 59.8 34.8 60 34.8C60.2 34.8 60.5 34.7 60.7 34.5C61.1 34.1 61.1 33.5 60.7 33.1L60 32.4L60.7 31.7C61.1 31.3 61.1 30.7 60.7 30.3Z" fill="white" />
<path d="M12.5 32.5C12.7 32.7 13 32.8 13.2 32.8C13.4 32.8 13.7 32.7 13.9 32.5L14.6 31.8L15.3 32.5C15.5 32.7 15.8 32.8 16 32.8C16.2 32.8 16.5 32.7 16.7 32.5C17.1 32.1 17.1 31.5 16.7 31.1L16 30.4L16.7 29.7C17.1 29.3 17.1 28.7 16.7 28.3C16.3 27.9 15.7 27.9 15.3 28.3L14.6 29L13.9 28.3C13.5 27.9 12.9 27.9 12.5 28.3C12.1 28.7 12.1 29.3 12.5 29.7L13.2 30.4L12.5 31.1C12.1 31.5 12.1 32.1 12.5 32.5Z" fill="white" />
<path d="M49.7 48.3C49.3 47.9 48.7 47.9 48.3 48.3L47.6 49L46.9 48.3C46.5 47.9 45.9 47.9 45.5 48.3C45.1 48.7 45.1 49.3 45.5 49.7L46.2 50.4L45.5 51.1C45.1 51.5 45.1 52.1 45.5 52.5C45.7 52.7 46 52.8 46.2 52.8C46.4 52.8 46.7 52.7 46.9 52.5L47.6 51.8L48.3 52.5C48.5 52.7 48.8 52.8 49 52.8C49.2 52.8 49.5 52.7 49.7 52.5C50.1 52.1 50.1 51.5 49.7 51.1L49 50.4L49.7 49.7C50.1 49.3 50.1 48.7 49.7 48.3Z" fill="white" />
<path d="M59.5 9.10001C59 9.30001 58.8 9.90001 59 10.4C60.9 14.6 60 19.5 56.8 22.8C52.9 26.7 46.8 27.1 42.5 23.8C43.7 21.9 44.9 20 46 18L46.1 17.9C47.1 16.1 48.6 14.6 50.4 13.6L54.7 11.2C55.4 10.8 55.9 10.2 56.1 9.40001C56.3 8.60001 56.1 7.80001 55.7 7.20001C54.9 6.00001 53.4 5.60001 52.1 6.20001L46.9 8.80001C43.2 10.6 40.2 13.6 38.4 17.3C38.1 17.9 37.8 18.6 37.4 19.2C30.4 13.9 23.3 12.5 20 15.8C18 17.8 17.7 21.2 19.1 25.3C20.2 28.4 22.2 31.7 24.8 34.8C24.6 35 24.4 35.1 24.2 35.3L22.6 36.7C21.4 35.7 19.7 35.8 18.6 36.9C17.7 37.8 17.5 39.1 18 40.2L4 52.1C2.8 53.1 2.1 54.6 2 56.1C1.9 57.7 2.5 59.2 3.6 60.3C4.6 61.3 6.1 61.9 7.6 61.9C7.7 61.9 7.8 61.9 7.8 61.9C9.4 61.8 10.8 61.1 11.8 59.9L23.6 46C24 46.2 24.4 46.3 24.8 46.3C25.6 46.3 26.3 46 26.9 45.4C28 44.3 28 42.6 27.2 41.5C27.9 40.9 28.6 40.2 29.3 39.5C32.3 42 35.5 43.9 38.5 45C40.2 45.6 41.8 45.9 43.2 45.9C45.2 45.9 46.8 45.3 48 44.1C48.4 43.7 48.4 43.1 48 42.7C47.6 42.3 47 42.3 46.6 42.7C45.2 44.1 42.4 44.3 39.1 43.1C36.4 42.1 33.5 40.4 30.7 38.1C34.6 34.2 38.1 29.9 41.2 25.4C43.5 27.1 46.2 28 48.9 28C52.2 28 55.5 26.7 58.1 24.2C61.9 20.4 63 14.5 60.7 9.60001C60.6 9.10001 60 8.90001 59.5 9.10001ZM20.8 24.8C19.6 21.5 19.8 18.7 21.2 17.3C23.8 14.7 30 16.3 36.2 21C33.5 25.6 30.1 29.8 26.2 33.6C23.7 30.7 21.8 27.7 20.8 24.8ZM25.6 44.1C25.2 44.5 24.6 44.5 24.2 44.1L20 39.9C19.6 39.5 19.6 38.9 20 38.5C20.2 38.3 20.5 38.2 20.7 38.2C21 38.2 21.2 38.3 21.4 38.5L25.6 42.7C26 43.1 26 43.7 25.6 44.1ZM29.3 36.8C28.8 37.3 28.3 37.8 27.9 38.2C27.2 38.9 26.6 39.5 25.9 40.1L24 38.2L25.5 36.9C25.7 36.7 25.9 36.5 26.1 36.4C26.6 36 27.1 35.5 27.6 35C32.7 30.2 36.9 24.5 40.1 18.2C41.7 14.9 44.4 12.2 47.7 10.6L52.9 8.00001C53.3 7.80001 53.7 7.90001 54 8.30001C54 8.60001 54 8.80001 54 9.00001C53.9 9.20001 53.8 9.40001 53.6 9.50001L49.3 11.9C47.2 13.1 45.5 14.8 44.3 16.9L44.2 17C40.2 24.3 35.2 30.9 29.3 36.8Z" fill="white" />
<path d="M45 6C45.5523 6 46 5.55228 46 5C46 4.44772 45.5523 4 45 4C44.4477 4 44 4.44772 44 5C44 5.55228 44.4477 6 45 6Z" fill="white"/>
<path d="M45 33C45.5523 33 46 32.5523 46 32C46 31.4477 45.5523 31 45 31C44.4477 31 44 31.4477 44 32C44 32.5523 44.4477 33 45 33Z" fill="white" />
<path d="M51 41C51.5523 41 52 40.5523 52 40C52 39.4477 51.5523 39 51 39C50.4477 39 50 39.4477 50 40C50 40.5523 50.4477 41 51 41Z" fill="white" />
<path d="M25 25C25.5523 25 26 24.5523 26 24C26 23.4477 25.5523 23 25 23C24.4477 23 24 23.4477 24 24C24 24.5523 24.4477 25 25 25Z" fill="white" />
<path d="M14 18C14.5523 18 15 17.5523 15 17C15 16.4477 14.5523 16 14 16C13.4477 16 13 16.4477 13 17C13 17.5523 13.4477 18 14 18Z" fill="white" />
<path d="M42 49C39 49 36 48 33.6 46.2C33.2 45.9 32.5 46 32.2 46.4C31.9 46.8 32 47.5 32.4 47.8C35.2 49.9 38.6 51 42 51C42.6 51 43 50.6 43 50C43 49.4 42.6 49 42 49Z" fill="white" />
<path d="M19.5 12.9C22.3 11.2 25.7 11.2 28.5 12.9C28.6 13 28.8 13 29 13C29.3 13 29.7 12.8 29.9 12.5C30.2 12 30 11.4 29.6 11.1C26.2 9.10001 22 9.10001 18.6 11.1C18.1 11.4 18 12 18.3 12.5C18.4 13 19 13.1 19.5 12.9Z" fill="white" />
</svg>
